<svg xmlns="http://www.w3.org/2000/svg" width="113" height="129" viewBox="0 0 113 129">
  <defs>
    <linearGradient id="a" x1="50%" x2="50%" y1="0%" y2="100%">
      <stop offset="0%" stop-color="#F8B931"/>
      <stop offset="100%" stop-color="#EF942F"/>
    </linearGradient>
  </defs>
  <path fill="url(#a)" d="M153.656699,93 L172.483139,93 C173.035424,93 173.483139,93.4477153 173.483139,94 C173.483139,99.0163818 173.483139,104.032764 173.483139,109.049145 C173.483139,113.404948 173.483139,120.889833 173.483139,124.439414 C172.935002,124.782356 169.851635,126.250714 166.135439,127.987002 C161.208812,130.362564 158.635804,133.645007 158.416416,137.834334 L158.416416,217.392857 C158.416416,218.744292 157.958756,219.849996 157.043421,220.71 C156.128086,221.570004 154.99919,222 153.656699,222 L128.759717,222 C127.417226,222 126.28833,221.570004 125.372995,220.71 C124.457661,219.849996 124,218.744292 124,217.392857 L124,172.242857 L124,141.467143 L124,97.7914286 C124,96.4399932 124.457661,95.303576 125.372995,94.3821429 C126.28833,93.4607097 127.417226,93 128.759717,93 L153.656699,93 Z M202.583508,139.037958 L202.57137,139.029472 C202.576925,138.919116 202.580971,138.809341 202.583508,138.700148 L202.583508,138.154279 C202.480773,133.811815 199.903719,130.422714 194.852347,127.987002 C191.136152,126.250714 188.052785,124.782356 187.504647,124.439414 C187.504647,120.889833 187.504647,113.404948 187.504647,109.049145 C187.504647,104.032764 187.504647,99.0163818 187.504647,94 C187.504647,93.4477153 187.952363,93 188.504647,93 L207.041603,93 L232.541905,93 C233.84962,93 234.919552,93.4299957 235.751733,94.29 C236.583915,95.1500043 237,96.2557075 237,97.6071429 L237,217.392857 C237,218.621435 236.583915,219.696424 235.751733,220.617857 C234.919552,221.53929 233.84962,222 232.541905,222 L207.041603,222 C205.852772,222 204.81256,221.53929 203.920937,220.617857 C203.029313,219.696424 202.583508,218.621435 202.583508,217.392857 L202.583508,139.037958 Z" transform="translate(-124 -93)"/>
</svg>
